<?xml version="1.0" encoding="UTF-8"?><svg id="Layer_2" xmlns="http://www.w3.org/2000/svg" viewBox="0 0 155.34 25.95"><defs><style>.cls-1,.cls-2{fill:#bf272d;}.cls-1,.cls-3{stroke-width:.15px;}.cls-1,.cls-3,.cls-4{stroke:#000;stroke-miterlimit:10;}.cls-3,.cls-4{fill:none;}.cls-4{stroke-width:.25px;}</style></defs><g id="Layer_4"><polygon class="cls-1" points="8.8 6.9 .14 .25 .14 18.29 8.66 24.93 8.8 6.9"/><path class="cls-4" d="m12.43,14.47c.69,0,2.54-.08,4.28-1.37,1.96-1.45,2.87-3.76,2.84-5.78-.02-1.33-.44-2.63-1.18-3.76C16.95,1.37,14.41.18,11.81.18H.07"/><line class="cls-4" x1="8.66" y1="24.93" x2="0" y2="24.93"/><polygon class="cls-1" points="22.3 7.31 30.95 .66 30.95 18.7 22.43 25.34 22.3 7.31"/><path class="cls-4" d="m22.29.59h10.29c2.74,0,5.39,1.29,6.85,3.61,1.45,2.32,1.22,5.12-.42,7.27-.78,1.01-1.75,1.85-2.72,2.68-1.77,1.51-3.52,3.05-5.33,4.49"/><line class="cls-4" x1="22.43" y1="25.34" x2="31.09" y2="25.34"/><line class="cls-4" x1="33.9" y1="16.25" x2="40.86" y2="25.2"/><path class="cls-4" d="m93.22,6.1c-.67-.91-2.9-3.71-6.98-4.87-.67-.19-2.59-.71-5-.44-.98.11-2.04.35-3.13.79-4.31,1.75-7.47,6.03-7.8,10.86-.05.76-.31,5.76,3.49,9.54,4.98,4.97,12.12,3.05,12.61,2.9,3.63-1.04,5.83-3.4,6.72-4.48"/><path class="cls-2" d="m80.44.83c.14-.02.34-.04.34,0,0,.07-1.1.26-1.82.89-.38.32-.86.74-.93,1.87v19.18c0,.45.13.9.39,1.27.1.14.21.28.35.41.46.43.95.59,1,.64-.11,0-1.6-.4-2.75-.91-3.95-1.77-5.73-5.82-5.9-6.22-1.73-4.06-1-8.62,1.14-11.79,1.36-1.99,3.02-3.07,4.37-3.94,0,0,1.65-1.1,3.81-1.4Z"/><path class="cls-3" d="m79.78,25.09h0"/><path class="cls-3" d="m78.03,3.59v19.18c0,.45.13.9.39,1.27.1.14.21.28.35.41.46.43.95.59,1,.64-.11,0-1.6-.4-2.75-.91-3.95-1.77-5.73-5.82-5.9-6.22-1.73-4.06-1-8.62,1.14-11.79,1.36-1.99,3.02-3.07,4.37-3.94,0,0,1.65-1.1,3.81-1.4.14-.02.34-.04.34,0,0,.07-1.1.26-1.82.89-.38.32-.86.74-.93,1.87Z"/><polygon class="cls-1" points="96.39 7.76 105.05 1.12 105.05 19.15 96.53 25.8 96.39 7.76"/><line class="cls-4" x1="96.38" y1="1.04" x2="115.78" y2="1.04"/><line class="cls-4" x1="96.53" y1="25.8" x2="115.73" y2="25.8"/><line class="cls-4" x1="105.22" y1="12.53" x2="111.82" y2="12.53"/><path class="cls-4" d="m66.19,6.19c-2.23-3.12-5.85-4.54-6.98-4.87-.34-.1-.68-.18-.68-.18-.93-.22-2.48-.47-4.31-.27-.98.11-2.04.35-3.13.79-4.31,1.75-7.47,6.03-7.8,10.86-.05.76-.31,5.76,3.49,9.54,4.94,4.93,12.01,3.07,12.61,2.9,1.09-.31,4.4-1.29,6.72-4.48,3.11-4.27,2.9-10.36.09-14.3Z"/><path class="cls-2" d="m53.42.92c.14-.02.33-.03.34,0,0,.08-1.1.27-1.82.89-.38.33-.86.75-.93,1.88v19.18c0,.45.13.9.39,1.27.1.14.21.28.35.41.46.43.95.58,1,.63-.14,0-1.61-.39-2.75-.9-3.95-1.77-5.74-5.83-5.9-6.22-1.73-4.06-1-8.62,1.14-11.79,1.35-2,3.02-3.08,4.37-3.95,0,0,1.65-1.09,3.81-1.4Z"/><path class="cls-3" d="m52.76,25.18h-.01"/><path class="cls-3" d="m51.01,3.69v19.18c0,.45.13.9.39,1.27.1.14.21.28.35.41.46.43.95.58,1,.63-.14,0-1.61-.39-2.75-.9-3.95-1.77-5.74-5.83-5.9-6.22-1.73-4.06-1-8.62,1.14-11.79,1.35-2,3.02-3.08,4.37-3.95,0,0,1.65-1.09,3.81-1.4.14-.02.33-.03.34,0,0,.08-1.1.27-1.82.89-.38.33-.86.75-.93,1.88Z"/><path class="cls-4" d="m133.85,2.8s-1.15-1.6-5.18-2.25c-.29-.05-1-.19-1.77-.2-3.63-.08-8.7,2.32-9.09,5.95-.17,1.56.59,2.79.8,3.14,1.56,2.56,4.91,3,6.28,3.18.92.12.85.09,1.96.1,8.77.11,9.34,5.53,9.12,7.01-.23,1.48-1.08,6.44-9.57,5.98-3.9-.21-6.6-2.31-7.69-3.25"/><path class="cls-2" d="m128.07.42c-.05.04-.11.03-.18.03-.76,0-1.82,0-2.48.45-.42.3-.62.68-.71,1.11-.12.54-.05,1.15-.05,1.72v3.69c0,.87,0,1.75,0,2.62,0,.44,0,.88,0,1.33,0,.2.05.34.11.47.32.78,1.8.87,2.1.89-.58.02-1.42.01-2.41-.14-1.74-.26-4.43-.67-5.86-2.76-.9-1.31-.89-2.69-.88-2.99.06-2.23,1.83-4.2,3.67-5.29,1.73-1.03,3.64-1.3,5.62-1.21.36.02.75.04,1.09.1Z"/><path class="cls-3" d="m124.69,2.01c-.12.54-.05,1.15-.05,1.72v3.69c0,.87,0,1.75,0,2.62,0,.44,0,.88,0,1.33,0,.2.05.34.11.47.32.78,1.8.87,2.1.89-.58.02-1.42.01-2.41-.14-1.74-.26-4.43-.67-5.86-2.76-.9-1.31-.89-2.69-.88-2.99.06-2.23,1.83-4.2,3.67-5.29,1.73-1.03,3.64-1.3,5.62-1.21.36.02.75.04,1.09.1-.05.04-.11.03-.18.03-.76,0-1.82,0-2.48.45-.42.3-.62.68-.71,1.11Z"/><path class="cls-4" d="m153.07,2.75s-1.15-1.6-5.18-2.25c-.29-.05-1-.19-1.77-.2-3.63-.08-8.7,2.32-9.09,5.95-.17,1.56.59,2.79.8,3.14,1.56,2.56,4.91,3,6.28,3.18.92.12.85.09,1.96.1,8.77.11,9.34,5.53,9.12,7.01-.23,1.48-1.08,6.44-9.57,5.98-3.9-.21-6.6-2.31-7.69-3.25"/><path class="cls-2" d="m147.29.36c-.05.03-.12.03-.18.03-.77-.01-1.83,0-2.48.45-.42.29-.62.68-.71,1.11-.12.55-.06,1.15-.06,1.72v6.3c0,.44,0,.89,0,1.33,0,.2.05.35.1.47.33.78,1.81.87,2.1.89-.59.02-1.43.02-2.42-.13-1.74-.26-4.42-.67-5.85-2.77-.9-1.31-.89-2.69-.89-2.99.07-2.23,1.83-4.2,3.67-5.29,1.73-1.03,3.65-1.29,5.62-1.21.36.01.75.04,1.1.1Z"/><path class="cls-3" d="m143.91,1.96c-.12.55-.06,1.15-.06,1.72v6.3c0,.44,0,.89,0,1.33,0,.2.05.35.1.47.33.78,1.81.87,2.1.89-.59.02-1.43.02-2.42-.13-1.74-.26-4.42-.67-5.85-2.77-.9-1.31-.89-2.69-.89-2.99.07-2.23,1.83-4.2,3.67-5.29,1.73-1.03,3.65-1.29,5.62-1.21.36.01.75.04,1.1.1-.05.03-.12.03-.18.03-.77-.01-1.83,0-2.48.45-.42.29-.62.68-.71,1.11Z"/></g></svg>